<svg width="31" height="14" viewBox="0 0 31 14" fill="none" xmlns="http://www.w3.org/2000/svg">
<g clip-path="url(#clip0_506_9612)">
<path opacity="0.4" d="M5.52245 13.9548H22.2027C24.1495 13.9548 25.5399 13.7363 26.5323 12.7438C27.5281 11.7513 27.7326 10.3858 27.7326 8.43225V5.53905C27.7326 3.58559 27.5281 2.21338 26.5323 1.22424C25.5365 0.231767 24.1495 0.0166016 22.2027 0.0166016H5.46101C3.58972 0.0166016 2.19603 0.235097 1.20356 1.2309C0.207754 2.22337 0 3.59966 0 5.4702V8.43225C0 10.3858 0.204423 11.7546 1.1969 12.7438C2.19603 13.7363 3.57973 13.9548 5.52245 13.9548ZM5.23907 12.6249C3.97279 12.6249 2.83261 12.4245 2.17068 11.77C1.51949 11.1081 1.32989 9.98524 1.32989 8.71563V5.31379C1.32989 3.99272 1.51949 2.85662 2.16735 2.19469C2.82928 1.52943 3.98686 1.34316 5.3046 1.34316H22.4935C23.7598 1.34316 24.9 1.54683 25.5512 2.19802C26.2131 2.85995 26.4027 3.97531 26.4027 5.24493V8.71563C26.4027 9.98524 26.2098 11.1081 25.5512 11.77C24.9 12.4279 23.7598 12.6249 22.4935 12.6249H5.23907ZM28.9771 9.601C29.7724 9.55062 30.8478 8.5256 30.8478 6.98194C30.8478 5.44237 29.7724 4.41735 28.9771 4.36697V9.601Z" fill="white"/>
<path d="M4.86311 11.5221H22.8806C23.8442 11.5221 24.4171 11.3714 24.7811 11.0073C25.1452 10.6399 25.3033 10.0637 25.3033 9.09934V4.86885C25.3033 3.89786 25.1452 3.32831 24.7845 2.96093C24.4171 2.60021 23.8375 2.44617 22.8806 2.44617H4.93197C3.90287 2.44617 3.30926 2.59688 2.95928 2.9576C2.59855 3.32498 2.44043 3.9186 2.44043 4.93029V9.09934C2.44043 10.0737 2.59855 10.6399 2.95928 11.0073C3.32666 11.368 3.9062 11.5221 4.86311 11.5221Z" fill="white"/>
</g>
<defs>
<clipPath id="clip0_506_9612">
<rect width="30.8478" height="13.9548" fill="white"/>
</clipPath>
</defs>
</svg>
